<svg viewBox="0 0 267 50" fill="none" xmlns="http://www.w3.org/2000/svg">
    <path d="M16.2508 7.30363H11.7661V9.6454H16.2508V21.8169H19.0528V0.420654H16.2508V7.30363Z" fill="black"/>
    <path d="M9.23496 5.80881V2.15735H6.42581V5.80881C6.42581 9.8304 4.28686 13.6812 1.22102 15.183L1 15.2898L2.76107 17.5106L2.90367 17.4394C5.09253 16.3148 6.83221 14.1296 7.8589 11.2469C8.85708 13.9516 10.5754 16.0158 12.7357 17.0906L12.8854 17.1618L14.5396 14.9125L14.3185 14.8129C11.2741 13.4036 9.23496 9.78058 9.23496 5.80881Z" fill="black"/>
    <path d="M22.0331 11.3394H30.2966V12.6349H24.2861V14.8343H36.2856V15.9518H24.3289V21.6034H39.6295V19.3826H27.0953V18.0373H39.0306V12.6349H33.1057V11.3394H41.3977V9.04034H22.0331V11.3394Z" fill="black"/>
    <path d="M31.7225 8.30008C36.5993 8.30008 39.3942 6.9121 39.3942 4.48491C39.3942 2.06484 36.5993 0.669739 31.7225 0.669739C26.8457 0.669739 24.0508 2.05772 24.0508 4.48491C24.0508 6.9121 26.8457 8.30008 31.7225 8.30008ZM26.9312 4.48491C26.9312 3.43147 28.6353 2.8478 31.7296 2.8478C34.824 2.8478 36.5209 3.43147 36.5209 4.48491C36.5209 5.53835 34.8168 6.12202 31.7296 6.12202C28.6281 6.12202 26.9312 5.54547 26.9312 4.48491Z" fill="black"/>
    <path d="M50.9874 5.83018V2.20007H48.1996V5.83018C48.1996 9.91583 45.9751 13.7666 42.788 15.2044L42.567 15.304L44.214 17.6245L44.3637 17.5533C46.7237 16.4073 48.5775 14.1723 49.6256 11.2326C50.6665 13.9232 52.506 16.0443 54.7376 17.0906L54.8874 17.1618L56.5201 14.9339L56.2991 14.8343C53.1762 13.4249 50.9874 9.72365 50.9874 5.83018Z" fill="black"/>
    <path d="M60.5128 0.442017H57.7036V21.8383H60.5128V0.442017Z" fill="black"/>
    <path d="M77.0682 11.375L76.7331 9.04032L76.5335 9.07591C73.4819 9.5884 70.8938 9.69517 67.5 9.70228V7.78047H74.6726V1.4527H64.6908V3.79447H71.9347V5.58104H64.7336V12.0441H66.6943C70.7725 12.0441 73.6031 11.9444 76.8686 11.4177L77.0682 11.375Z" fill="black"/>
    <path d="M78.5798 15.1617H69.9812V13.005H67.2006V21.5322H81.3391V13.005H78.5798V15.1617V15.1617ZM69.9812 19.2189V17.4323H78.5727V19.2189H69.9812Z" fill="black"/>
    <path d="M81.339 0.470459H78.5513V12.4285H81.339V0.470459Z" fill="black"/>
    <path d="M85.5884 16.6707H95.8268V2.43494H85.5884V16.6707ZM93.089 4.72689V14.3502H88.3262V4.72689H93.089Z" fill="black"/>
    <path d="M102.123 0.442017H99.3135V21.8383H102.123V0.442017Z" fill="black"/>
    <path d="M107.292 8.20756C110.757 7.79472 113.523 6.42098 114.956 4.42087C116.389 6.42098 119.156 7.79472 122.621 8.20756L122.763 8.22891L123.747 6.01526L123.476 5.98679C119.434 5.58819 116.389 3.59519 116.389 1.36018V0.562988H113.537V1.36018C113.537 3.59519 110.486 5.58819 106.443 5.98679L106.172 6.01526L107.156 8.22891L107.292 8.20756Z" fill="black"/>
    <path d="M105.26 11.2469H113.53V12.6135H107.513V14.8129H119.519V15.9731H107.555V21.6033H122.863V19.3826H110.322V18.0587H122.257V12.6135H116.332V11.2469H124.646V8.94781H105.26V11.2469Z" fill="black"/>
    <path d="M134.827 9.33929L134.791 9.5457L137.529 9.84465L137.565 9.6667C138.078 6.94057 138.078 4.83369 138.078 3.43859V2.03638H127.141V4.37815H135.333C135.298 5.73054 135.212 7.27512 134.827 9.33929Z" fill="black"/>
    <path d="M131.826 14.7916H129.016V21.3969H143.668V19.0552H131.826V14.7916Z" fill="black"/>
    <path d="M142.991 7.09722V0.463379H140.189V16.5782H142.991V9.46036H145.779V7.09722H142.991Z" fill="black"/>
    <path d="M139.483 12.5779L139.283 10.4497L139.077 10.4853C137.009 10.8127 134.756 10.9479 132.802 11.0262V6.81958H130.043V11.1116C128.631 11.1543 127.27 11.1543 126.065 11.1543H125.836L126.143 13.4961H126.314C129.729 13.4961 134.784 13.4036 139.305 12.6135L139.483 12.5779Z" fill="black"/>
    <path d="M13.2776 47.3487C11.3454 48.9858 8.75018 49.0071 8.02294 49.0071C7.06754 49.0071 4.00171 48.9644 1.77007 46.6226C1.49914 46.3308 1.19969 45.9464 0.99292 45.5763L3.51688 43.8324C4.22274 44.8788 5.54176 46.2383 8.49351 46.2383C8.62898 46.2383 9.19936 46.2383 9.67706 46.1244C10.0193 46.0603 11.5879 45.6261 11.5879 44.1243C11.5879 43.9677 11.5665 43.5335 11.2955 43.1705C10.7465 42.4445 9.29205 42.238 8.50064 42.0601L6.58984 41.6259C5.76991 41.4408 4.88581 41.2629 4.15857 40.8785C3.40994 40.4942 1.86276 39.4692 1.86276 37.1559C1.86276 36.7929 1.90554 35.7466 2.47593 34.7928C3.20317 33.5685 4.95711 32.1592 8.20832 32.1592C9.64141 32.1592 12.4648 32.3869 14.6893 35.4049L12.2082 37.2484C11.7091 36.4512 10.5683 34.864 8.04433 34.864C7.88747 34.864 5.8626 34.8426 5.19952 36.0882C5.06406 36.3373 5.01415 36.5651 5.01415 36.8142C5.01415 37.0847 5.08545 37.3125 5.22091 37.5403C5.60593 38.2022 6.49003 38.4015 7.97303 38.7218L9.63428 39.0848C11.1601 39.4265 12.8427 39.882 13.9122 41.1277C14.3685 41.6259 14.8462 42.3519 14.8462 43.8324C14.8462 45.2774 14.397 46.3949 13.2776 47.3487Z" fill="#949494"/>
    <path d="M17.42 48.5942V32.5648H28.8349V35.2483H20.3718V39.0136H28.1291V41.6045H20.3718V45.8895H29.4053V48.5942H17.42Z" fill="#949494"/>
    <path d="M42.3602 37.0136C41.5189 35.654 40.2498 34.8995 38.6313 34.8995C37.6331 34.8995 36.8987 35.2198 36.585 35.3764C35.4442 35.9886 34.0397 37.4905 34.0397 40.4871C34.0397 41.0992 34.0611 44.0531 36.3141 45.5265C37.2909 46.16 38.2677 46.2098 38.6812 46.2098C39.002 46.2098 39.7293 46.1885 40.5207 45.8255C41.7042 45.2774 43.2514 43.9179 43.3156 40.8999C43.3441 39.5831 43.0874 38.1738 42.3602 37.0136ZM44.1141 46.7081C43.7505 47.0924 42.8165 48.0249 41.3834 48.5445C40.8843 48.7295 39.9503 49 38.5885 49C36.3141 49 34.5887 48.2526 33.0843 46.523C31.587 44.8218 30.9453 42.8217 30.9453 40.601C30.9453 40.0814 30.9667 38.85 31.423 37.4904C32.4711 34.2874 35.2161 32.1592 38.6527 32.1592C41.747 32.1592 43.5865 33.839 44.3352 34.7002C45.1765 35.654 46.36 37.5118 46.3386 40.5796C46.3458 41.5761 46.2317 44.4161 44.1141 46.7081Z" fill="#949494"/>
    <path d="M61.8745 45.3272C61.3541 46.9358 59.5074 49.0071 55.5718 49.0071C53.6824 49.0071 51.8001 48.5515 50.4811 47.0995C50.2743 46.8931 49.7324 46.2382 49.4544 45.377C49.2048 44.5584 49.2048 43.8111 49.2048 42.1099V32.5648H52.2279V42.4159C52.2279 43.3697 52.2279 43.7114 52.3847 44.1883C52.6771 45.1421 53.5398 46.0959 55.6787 46.0959C56.0637 46.0959 58.274 46.0959 58.9299 44.2808C59.1082 43.7612 59.1367 43.327 59.1367 42.2594V32.5648H62.1384V41.8038C62.1455 43.6473 62.1669 44.4161 61.8745 45.3272Z" fill="#949494"/>
    <path d="M65.8317 48.5942V32.5648H68.8547V45.8681H75.2217V48.5942H65.8317Z" fill="#949494"/>
    <path d="M96.0977 48.5942L96.39 35.4262L92.9107 48.5942H90.2085L86.722 35.4262L87.0214 48.5942H84.0911V32.5648H88.4545L91.5916 44.4588L94.686 32.5648H99.0281V48.5942H96.0977Z" fill="#949494"/>
    <path d="M115.313 45.3272C114.792 46.9358 112.946 49.0071 109.01 49.0071C107.121 49.0071 105.238 48.5515 103.919 47.0995C103.713 46.8931 103.171 46.2382 102.893 45.377C102.643 44.5584 102.643 43.8111 102.643 42.1099V32.5648H105.666V42.4159C105.666 43.3697 105.666 43.7114 105.823 44.1883C106.122 45.1421 106.985 46.0959 109.124 46.0959C109.509 46.0959 111.719 46.0959 112.375 44.2808C112.554 43.7612 112.582 43.327 112.582 42.2594V32.5648H115.584V41.8038C115.584 43.6473 115.605 44.4161 115.313 45.3272Z" fill="#949494"/>
    <path d="M130.2 47.3487C128.268 48.9858 125.672 49.0071 124.945 49.0071C123.99 49.0071 120.924 48.9644 118.692 46.6226C118.421 46.3308 118.122 45.9464 117.915 45.5763L120.439 43.8324C121.145 44.8788 122.464 46.2383 125.416 46.2383C125.551 46.2383 126.121 46.2383 126.599 46.1244C126.941 46.0603 128.51 45.6261 128.51 44.1243C128.51 43.9677 128.489 43.5335 128.218 43.1705C127.669 42.4445 126.214 42.238 125.423 42.0601L123.512 41.6259C122.692 41.4408 121.808 41.2629 121.081 40.8785C120.332 40.4942 118.785 39.4692 118.785 37.1559C118.785 36.7929 118.828 35.7466 119.398 34.7928C120.125 33.5685 121.879 32.1592 125.13 32.1592C126.564 32.1592 129.387 32.3869 131.611 35.4049L129.13 37.2484C128.631 36.4512 127.49 34.864 124.966 34.864C124.81 34.864 122.785 34.8426 122.122 36.0882C121.986 36.3373 121.936 36.5651 121.936 36.8142C121.936 37.0847 122.008 37.3125 122.143 37.5403C122.528 38.2022 123.412 38.4015 124.895 38.7218L126.556 39.0848C128.082 39.4265 129.765 39.882 130.834 41.1277C131.291 41.6259 131.768 42.3519 131.768 43.8324C131.775 45.2774 131.319 46.3949 130.2 47.3487Z" fill="#949494"/>
    <path d="M134.342 48.5942V32.5648H145.757V35.2483H137.294V39.0136H145.051V41.6045H137.294V45.8895H146.32V48.5942H134.342Z" fill="#949494"/>
    <path d="M161.264 45.3272C160.744 46.9358 158.897 49.0071 154.962 49.0071C153.072 49.0071 151.19 48.5515 149.871 47.0995C149.664 46.8931 149.122 46.2382 148.844 45.377C148.595 44.5584 148.595 43.8111 148.595 42.1099V32.5648H151.618V42.4159C151.618 43.3697 151.618 43.7114 151.775 44.1883C152.067 45.1421 152.93 46.0959 155.069 46.0959C155.454 46.0959 157.664 46.0959 158.32 44.2808C158.498 43.7612 158.527 43.327 158.527 42.2594V32.5648H161.528V41.8038C161.535 43.6473 161.557 44.4161 161.264 45.3272Z" fill="#949494"/>
    <path d="M177.093 48.5942L177.385 35.4262L173.906 48.5942H171.204L167.724 35.4262L168.017 48.5942H165.086V32.5648H169.45L172.587 44.4588L175.681 32.5648H180.023V48.5942H177.093Z" fill="#949494"/>
    <path d="M200.878 37.0136C200.036 35.654 198.767 34.8995 197.149 34.8995C196.151 34.8995 195.416 35.2198 195.103 35.3764C193.962 35.9886 192.557 37.4905 192.557 40.4871C192.557 41.0992 192.579 44.0531 194.832 45.5265C195.808 46.16 196.785 46.2098 197.199 46.2098C197.52 46.2098 198.247 46.1885 199.038 45.8255C200.222 45.2774 201.769 43.9179 201.833 40.8999C201.855 39.5831 201.605 38.1738 200.878 37.0136ZM202.625 46.7081C202.261 47.0924 201.327 48.0249 199.894 48.5445C199.395 48.7295 198.461 49 197.099 49C194.825 49 193.099 48.2526 191.595 46.523C190.097 44.8218 189.456 42.8217 189.456 40.601C189.456 40.0814 189.477 38.85 189.933 37.4904C190.982 34.2874 193.727 32.1592 197.163 32.1592C200.258 32.1592 202.097 33.839 202.846 34.7002C203.687 35.654 204.871 37.5118 204.849 40.5796C204.856 41.5761 204.742 44.4161 202.625 46.7081Z" fill="#949494"/>
    <path d="M210.724 35.2483V39.2414H217.426V41.8038H210.724V48.5942H207.744V32.5648H218.36V35.2483H210.724Z" fill="#949494"/>
    <path d="M232.549 35.4476L230.317 42.8217H234.752L232.549 35.4476ZM236.484 48.5942L235.55 45.4624H229.526L228.592 48.5942H225.362L230.795 32.5648H234.203L239.686 48.5942H236.484Z" fill="#949494"/>
    <path d="M249.582 35.6326C249.061 35.291 248.441 35.1557 247.172 35.1557H244.741V40.1525H245.81C247.564 40.1525 248.655 40.1525 249.382 39.7681C249.839 39.519 250.587 38.9282 250.587 37.6327C250.58 37.2199 250.537 36.2661 249.582 35.6326ZM250.609 48.5942L247.45 42.6437H244.748V48.5942H241.768V32.5648H248.341C249.069 32.5648 251.229 32.636 252.662 34.5222C253.596 35.7465 253.639 37.1345 253.639 37.6541C253.639 37.9032 253.617 38.6933 253.346 39.4478C253.097 40.1097 252.32 41.4906 250.48 42.06L254.052 48.5942H250.609Z" fill="#949494"/>
    <path d="M262.473 35.2696V48.5942H259.471V35.2696H255.107V32.5648H266.907V35.2696H262.473Z" fill="#949494"/>
</svg>
