<svg version="1.1" id="Layer_1" xmlns="http://www.w3.org/2000/svg" x="0" y="0" viewBox="0 0 202.77 158.34" style="enable-background:new 0 0 202.77 158.34" xml:space="preserve"><style>.st0{fill:#909090}.st1{fill:#fff}</style><path class="st0" d="M79.53 29.13c-.83.46-1.66.42-2.56.42h-3.68v-9.37h3.35c.47 0 .95 0 1.41.04.3.02 1.07.1 1.68.75.2.22.6.72.6 1.5 0 .27-.07 1.2-.86 1.69-.22.15-.44.2-.7.25.12.03.4.08.72.25.47.26 1.27.88 1.27 2.23 0 .95-.4 1.76-1.23 2.23zm-1.24-7.02c-.45-.55-1.27-.5-1.9-.5h-1.36v2.34h.6c.47 0 .94 0 1.42-.03.43-.03.86-.08 1.18-.42.1-.1.29-.34.29-.73 0-.11-.03-.4-.23-.66zm-.08 3.38c-.47-.24-1.1-.23-2.2-.23h-.98v2.78h1.96c.59 0 1.25.04 1.69-.48.12-.13.29-.37.29-.83 0-.26-.08-.9-.76-1.24zM89.84 27.64c-.3.94-1.38 2.15-3.68 2.15-1.1 0-2.2-.27-2.97-1.12-.12-.12-.44-.5-.6-1-.14-.48-.14-.92-.14-1.92v-5.57h1.76v5.76a3 3 0 0 0 .1 1.03c.17.56.67 1.12 1.92 1.12.22 0 1.51 0 1.9-1.06.1-.3.12-.56.12-1.18v-5.67H90v5.4c0 1.08.01 1.53-.16 2.06zM97.91 29.55l-2.5-4.4-1.52 1.74v2.66h-1.74v-9.37h1.74v4.3l3.75-4.3h2.06l-3.06 3.53 3.27 5.84h-2zM100.51 26.27v-1.5h3.84v1.5h-3.84zM112.4 28.82a4.83 4.83 0 0 1-3.06.97c-.56 0-2.35-.03-3.65-1.4-.16-.17-.34-.4-.46-.6l1.48-1.03c.4.61 1.18 1.4 2.9 1.4.08 0 .42 0 .7-.06.2-.04 1.11-.29 1.11-1.17 0-.09-.01-.34-.17-.55-.32-.43-1.17-.55-1.63-.65l-1.12-.26c-.48-.1-1-.2-1.42-.43a2.35 2.35 0 0 1-1.34-2.18c0-.21.03-.82.36-1.38.42-.72 1.44-1.54 3.34-1.54.84 0 2.48.13 3.79 1.9l-1.45 1.07c-.3-.46-.96-1.4-2.43-1.4-.1 0-1.28 0-1.66.73a.84.84 0 0 0 .01.84c.23.39.75.5 1.6.7l.98.2c.89.2 1.87.47 2.5 1.2.26.3.54.72.54 1.58 0 .85-.27 1.5-.92 2.06zM114.84 29.55v-9.37h6.67v1.56h-4.94v2.2h4.53v1.52h-4.53v2.5h5.27v1.59h-7zM130.45 28.45a4.21 4.21 0 0 1-3.22 1.34 3.95 3.95 0 0 1-3.21-1.45 5.05 5.05 0 0 1-1.25-3.46c0-.3.01-1.03.28-1.82a4.37 4.37 0 0 1 4.22-3.12c1.8 0 2.88.98 3.32 1.48.49.56 1.18 1.65 1.17 3.44a5.3 5.3 0 0 1-1.3 3.59zm-1.02-5.67a2.45 2.45 0 0 0-2.18-1.24c-.58 0-1 .19-1.2.28-.65.36-1.48 1.24-1.48 2.99 0 .36.02 2.08 1.33 2.95a2.58 2.58 0 0 0 2.46.17c.69-.32 1.59-1.12 1.63-2.88.01-.77-.13-1.6-.56-2.27zM140.85 27.64c-.3.94-1.38 2.15-3.68 2.15-1.1 0-2.2-.27-2.97-1.12-.12-.12-.44-.5-.6-1-.15-.48-.15-.92-.15-1.92v-5.57h1.77v5.76a3 3 0 0 0 .09 1.03c.17.56.68 1.12 1.93 1.12.22 0 1.5 0 1.9-1.06.1-.3.11-.56.11-1.18v-5.67H141v5.4c0 1.08.02 1.53-.15 2.06zM143.18 29.55v-9.37h1.76v7.78h3.72v1.59h-5.48zM80.24 42.73l.18-7.7-2.03 7.7H76.8l-2.03-7.7.17 7.7h-1.71v-9.37h2.54l1.84 6.95 1.8-6.95h2.54v9.37h-1.72zM91.49 40.82c-.3.94-1.38 2.15-3.68 2.15-1.1 0-2.2-.27-2.98-1.12-.11-.12-.43-.5-.6-1-.14-.48-.14-.92-.14-1.92v-5.57h1.77v5.76a3 3 0 0 0 .09 1.03c.17.56.68 1.12 1.93 1.12.22 0 1.5 0 1.9-1.06.1-.3.11-.56.11-1.19v-5.66h1.75v5.4c0 1.07.02 1.52-.15 2.06zM100.2 42a4.83 4.83 0 0 1-3.06.97c-.56 0-2.35-.03-3.65-1.4-.16-.17-.33-.4-.45-.6l1.47-1.03c.41.61 1.18 1.4 2.9 1.4.09 0 .42 0 .7-.06.2-.04 1.11-.3 1.11-1.17 0-.09-.01-.34-.17-.55-.32-.43-1.17-.55-1.63-.65l-1.12-.26c-.48-.1-1-.2-1.42-.44a2.35 2.35 0 0 1-1.34-2.17c0-.21.03-.83.36-1.38.42-.72 1.45-1.54 3.34-1.54.84 0 2.49.13 3.79 1.9l-1.45 1.07c-.3-.46-.95-1.4-2.43-1.4-.1 0-1.27 0-1.66.72a.84.84 0 0 0 .02.85c.22.39.74.5 1.6.7l.97.2c.9.2 1.87.47 2.5 1.2.26.3.54.72.54 1.58 0 .85-.26 1.5-.91 2.06zM102.65 42.73v-9.37h6.66v1.56h-4.94v2.2h4.53v1.52h-4.53v2.5h5.27v1.59h-7zM118.39 40.82c-.3.94-1.38 2.15-3.68 2.15-1.1 0-2.2-.27-2.97-1.12-.12-.12-.44-.5-.6-1-.15-.48-.15-.92-.15-1.92v-5.57h1.77v5.76a3 3 0 0 0 .1 1.03c.17.56.67 1.12 1.92 1.12.22 0 1.51 0 1.9-1.06.1-.3.11-.56.11-1.19v-5.66h1.76v5.4c0 1.07.01 1.52-.16 2.06zM127.65 42.73l.18-7.7-2.03 7.7h-1.58l-2.03-7.7.17 7.7h-1.71v-9.37h2.54l1.84 6.95 1.8-6.95h2.54v9.37h-1.72zM142.61 41.63a4.21 4.21 0 0 1-3.22 1.34 3.95 3.95 0 0 1-3.21-1.45 5.05 5.05 0 0 1-1.25-3.47c0-.3.01-1.02.28-1.81a4.37 4.37 0 0 1 4.22-3.12c1.8 0 2.88.98 3.32 1.48.49.56 1.18 1.65 1.17 3.44a5.3 5.3 0 0 1-1.3 3.59zm-1.02-5.67a2.45 2.45 0 0 0-2.18-1.24c-.58 0-1 .19-1.2.28-.66.36-1.48 1.24-1.48 2.99 0 .36.01 2.08 1.33 2.94.57.38 1.14.4 1.38.4.19 0 .61-.01 1.08-.22.69-.32 1.59-1.12 1.63-2.88.01-.77-.14-1.6-.56-2.27zM147.34 34.92v2.34h3.91v1.5h-3.91v3.97h-1.74v-9.37h6.2v1.56h-4.46zM162.43 42.73l-.55-1.83h-3.52l-.54 1.83h-1.88l3.17-9.37h1.99l3.2 9.37h-1.87zm-2.3-7.69-1.3 4.32h2.59l-1.29-4.32zM170.7 42.73l-1.85-3.48h-1.58v3.48h-1.74v-9.37h3.84c.42 0 1.68.04 2.52 1.14a3.29 3.29 0 0 1 .4 2.88c-.15.38-.6 1.2-1.67 1.53l2.08 3.82h-2zm-.6-7.58c-.3-.2-.67-.28-1.4-.28h-1.43v2.92h.62c1.03 0 1.66 0 2.09-.22.26-.15.7-.5.7-1.25 0-.24-.02-.8-.58-1.17zM177.65 34.94v7.79h-1.75v-7.8h-2.55v-1.57h6.89v1.58h-2.59z"/><g><path class="st1" d="M81.2 4.34h-2.75v1.41h2.75v7.47h1.7V.11h-1.7z"/><path class="st1" d="M76.87 3.4V1.17h-1.7V3.4c0 2.48-1.3 4.85-3.2 5.77l-.11.06 1.06 1.34.08-.04a6.62 6.62 0 0 0 3.04-3.82 6.34 6.34 0 0 0 3 3.61l.08.04 1-1.36-.12-.06c-1.87-.86-3.13-3.09-3.13-5.54zM84.66 6.79h5.07v.82h-3.69v1.33h7.36v.7h-7.33v3.45h9.35v-1.34h-7.68v-.85h7.31V7.61h-3.63v-.82h5.09V5.4H84.66zM90.59 4.92c2.98 0 4.7-.85 4.7-2.33S93.56.26 90.58.26c-2.98 0-4.7.85-4.7 2.33s1.72 2.33 4.7 2.33zM87.64 2.6c0-.65 1.04-1.01 2.95-1.01s2.95.36 2.95 1.01-1.05 1.02-2.95 1.02-2.95-.36-2.95-1.02zM102.3 3.42V1.2h-1.68v2.22c0 2.5-1.37 4.88-3.33 5.76l-.12.06 1 1.4.08-.04a6.64 6.64 0 0 0 3.23-3.9 6.46 6.46 0 0 0 3.14 3.62l.08.04.99-1.35-.12-.06c-1.93-.86-3.27-3.14-3.27-5.53zM106.44.12h1.7v13.11h-1.7zM118.2 6.81 118 5.4l-.11.02a31.6 31.6 0 0 1-5.55.38V4.6h4.4V.72h-6.1v1.42h4.44v1.12h-4.41V7.2h1.19c2.5 0 4.24-.06 6.24-.38l.1-.02zM119.14.14h1.68v7.32h-1.68zM119.15 9.16h-5.29V7.84h-1.68v5.2h8.64v-5.2h-1.67v1.32zm-5.29 2.5v-1.13h5.3v1.12h-5.3zM135.8.45h-1.67v1.3h-5.5V.46h-1.67v5.08h8.84V.46zm-7.18 3.7V3.1h5.5v1.05h-5.5zM125.43 7.76h5.08v1.09h-3.77v1.38h7.45v2.98h1.68V8.85h-3.67V7.76h5.11v-1.4h-11.88zM147.33 4.34h-2.75v1.41h2.75v7.47h1.69V.11h-1.69z"/><path class="st1" d="M143 3.4V1.17h-1.7V3.4c0 2.48-1.31 4.85-3.2 5.77l-.11.06 1.06 1.34.08-.04a6.62 6.62 0 0 0 3.04-3.82 6.34 6.34 0 0 0 3 3.61l.08.04 1-1.36-.12-.06C144.26 8.08 143 5.85 143 3.4zM156.72 4.92c2.98 0 4.7-.85 4.7-2.33S159.7.26 156.71.26c-2.98 0-4.7.85-4.7 2.33s1.72 2.33 4.7 2.33zm-2.95-2.33c0-.65 1.04-1.01 2.95-1.01 1.9 0 2.95.36 2.95 1.01s-1.05 1.02-2.95 1.02c-1.9 0-2.95-.36-2.95-1.02zM150.79 6.79h5.06v.82h-3.68v1.33h7.36v.7h-7.33v3.45h9.35v-1.34h-7.68v-.85h7.31V7.61h-3.63v-.82h5.08V5.4h-11.84zM164.16 10.06h6.25V1.35h-6.25v8.71zm4.6-7.33v5.93h-2.95V2.73h2.94zM172.57.12h1.7v13.11h-1.7zM177.36 4.86c2.13-.25 3.83-1.1 4.7-2.33.87 1.23 2.57 2.08 4.7 2.33l.08.01.59-1.33-.15-.02c-2.48-.24-4.36-1.47-4.36-2.85V.2h-1.72v.48c0 1.38-1.88 2.6-4.36 2.85l-.15.02.59 1.33h.08zM176.13 6.73h5.07v.86h-3.69v1.33h7.36v.74h-7.33v3.43h9.35v-1.34h-7.68v-.83h7.31V7.59h-3.62v-.86h5.09V5.35h-11.86zM194.17 5.58l-.02.11 1.65.18.02-.1c.32-1.67.32-2.96.32-3.82V1.1h-6.68v1.42h5.02c-.02.83-.08 1.78-.31 3.06z"/><path class="st1" d="m197 7.55-.12-1.28-.12.02c-1.27.2-2.66.28-3.86.33V4.04h-1.67v2.63c-.87.03-1.7.03-2.45.03h-.12l.18 1.41h.1c2.09 0 5.19-.06 7.96-.54l.1-.02zM192.31 8.93h-1.7v4.03h8.95v-1.41h-7.25zM199.15 4.21V.14h-1.7V10h1.7V5.63h1.71V4.21z"/></g><path class="st1" d="m109.02 126.36-.29-.25.2-.32-2.52-7.75-.35-.14.1-.37-4.8-6.6-.37-.02-.03-.38-6.63-4.82-.35.06-.05-.35-2.66-1.93-2.65-1.92-.35.05-.05-.35-2.65-1.93-2.66-1.92-.34.05-.06-.35-2.65-1.92-2.66-1.93-.35.06-.05-.35-2.65-1.93-2.65-1.93-.35.06-.06-.35-2.65-1.93-2.65-1.92-.35.05-.06-.35-2.65-1.92-2.65-1.93-.35.05-.05-.35-2.66-1.92-2.65-1.93-.35.06-.05-.35-2.65-1.93-2.66-1.93-.35.06-.05-.35-2.65-1.93-2.65-1.93-.35.06-.06-.35-2.65-1.93-2.65-1.92-.35.05-.06-.35-2.65-1.92-2.65-1.93-.35.05-.05-.35-2.66-1.92-2.65-1.93-.35.06-.05-.35-2.65-1.93-2.66-1.93-.35.06-.05-.35-2.65-1.93-2.65-1.93-.35.06-.06-.35-4.93-3.58-.32.02.02-.32-3.27-4.5-.32-.08.13-.3-1.73-5.29-.27-.17.2-.25V26.8l-.24-.25.25-.25v-6.55l-.25-.25.25-.25v-6.56l-.25-.25.25-.25V8.31l-.19-.24.28-.11 1.5-2.58-.05-.3c.12 0 .2.02.3.03l2.59-1.49.11-.28.24.19h3.87l.25-.25.25.25h6.56l.25-.25.25.25h6.55l.25-.25.25.25h6.56l.25-.25.25.25h6.55l.25-.25.25.25h6.56l.25-.25.25.25h6.56l.25-.25.25.25h6.55l.25-.25V.25L61.57 0h-6.55l-.25.25-.25-.25h-6.56l-.25.25-.25-.25H40.9l-.25.25L40.4 0h-6.55l-.25.25-.25-.25h-6.56l-.25.25L26.3 0h-6.55l-.25.25-.25-.25h-6.56l-.25.25-.25-.25H7.5l-.24.32L6.9.15l-3.98 2.3-.05.4-.4.05-2.3 3.98c.07.16.1.22.15.37L0 7.5v4.68l.25.25-.25.25v6.56l.25.25-.25.25v6.55l.25.25-.25.25v6.57l.29.25-.2.32 2.02 6.21.35.15-.09.37 3.84 5.28.38.03c0 .15.01.23.03.38l5.31 3.86.35-.05.06.35 2.65 1.92 2.65 1.93.35-.06.05.35 2.66 1.93 2.65 1.93.35-.06.05.35 2.65 1.93 2.66 1.93.35-.06.05.35 2.65 1.93 2.65 1.92.35-.05.06.35 2.65 1.93 2.65 1.92.35-.05.06.35 2.65 1.92 2.65 1.93.35-.05.05.34 2.66 1.93 2.65 1.93.35-.06.05.35 2.65 1.93 2.66 1.93.34-.06.06.35 2.65 1.93 2.65 1.92.35-.05.06.35 2.65 1.93 2.65 1.92.35-.05.06.35 2.65 1.92 2.65 1.93.35-.05.05.34 2.66 1.93 2.65 1.93.35-.06.05.35 2.65 1.93 2.66 1.93.35-.06.05.35 2.65 1.93 2.65 1.92.35-.05.06.35 6.23 4.53.33-.03-.03.33 4.23 5.81.31.08-.12.3 2.22 6.83.28.17-.21.25v7.19l.2.24-.27.17-2.22 6.84.12.3-.31.07-4.23 5.82.03.32-.33-.02-5.81 4.22-.08.32-.3-.13-6.83 2.22-.17.28-.25-.21h-7.18l-.25.21-.17-.28-6.84-2.22-.3.13-.07-.32-6.24-4.53-.35.06-.05-.35-2.65-1.93-2.66-1.93-.35.06-.05-.35-2.65-1.93-2.65-1.93-.35.06-.06-.35-2.65-1.93-2.65-1.92-.35.05-.06-.35-2.65-1.92-2.65-1.93-.35.05-.05-.35-2.66-1.92-2.65-1.93-.35.06-1.78 2.45.06.34 2.65 1.93 2.65 1.93.35-.06.06.35 2.65 1.93 2.65 1.93.35-.06.05.35 2.66 1.93 2.65 1.92.35-.05.05.35 2.65 1.93 2.66 1.92.34-.05.06.35 2.65 1.92 2.65 1.93.35-.05.06.34 6.62 4.82.37-.1.15.36 7.74 2.52.33-.2.24.29h8.15l.25-.3.32.2 7.75-2.51.14-.35.37.09 6.6-4.8.02-.37.38-.03 4.8-6.59-.1-.37.35-.15 2.52-7.74-.2-.33.29-.24v-8.16z"/></svg>