<svg version="1.1" id="Layer_1" xmlns="http://www.w3.org/2000/svg" x="0" y="0" viewBox="0 0 209.96 150.86" style="enable-background:new 0 0 209.96 150.86" xml:space="preserve"><style>.st0{fill:#fff}.st1{fill:#909090}</style><path class="st0" d="m7.07 45.26-.55-1.87H2.94l-.56 1.87H.46L3.7 35.7h2.03l3.26 9.55h-1.9zm-2.33-7.83-1.33 4.4h2.64l-1.31-4.4zM15.5 45.26l-1.88-3.54H12v3.54h-1.77V35.7h3.9c.44 0 1.72.04 2.57 1.17.56.73.58 1.55.58 1.86 0 .15-.01.62-.17 1.07-.15.4-.61 1.22-1.7 1.55l2.12 3.9H15.5zm-.61-7.72c-.31-.2-.68-.29-1.44-.29h-1.44v2.98h.63c1.04 0 1.7 0 2.13-.23.27-.15.71-.5.71-1.27 0-.24-.02-.81-.6-1.2zM22.58 37.32v7.94h-1.79v-7.94h-2.6v-1.6h7.03v1.6h-2.64zM36.14 45.26l-.56-1.87H32l-.55 1.87h-1.92l3.23-9.55h2.03l3.25 9.55h-1.9zm-2.34-7.83-1.33 4.4h2.64l-1.31-4.4zM44.56 45.26l-1.88-3.54h-1.61v3.54H39.3V35.7h3.9c.44 0 1.72.04 2.58 1.17.55.73.58 1.55.58 1.86 0 .15-.02.62-.18 1.07-.15.4-.6 1.22-1.7 1.55l2.12 3.9h-2.04zm-.61-7.72c-.31-.2-.68-.29-1.43-.29h-1.45v2.98h.64c1.04 0 1.69 0 2.12-.23.27-.15.72-.5.72-1.27 0-.24-.03-.81-.6-1.2zM55.33 43.88a4.18 4.18 0 0 1-3.4 1.62c-.33 0-1.1-.02-1.93-.4-1.08-.52-2.54-1.82-2.54-4.64 0-.51 0-1.88.88-3.14A4.28 4.28 0 0 1 52 35.47c1.83 0 2.79.9 3.22 1.52.31.46.5.93.66 1.43l-1.77.46a2 2 0 0 0-2.08-1.77c-.54 0-.92.16-1.1.26-.71.35-1.52 1.27-1.52 3.05 0 .27.01 1.4.56 2.26.2.28.42.53.7.7.56.4 1.13.44 1.39.44.74 0 1.3-.3 1.76-.87.18-.23.33-.51.37-.58.06-.12.1-.23.18-.47l1.69.7c-.2.48-.4.86-.72 1.28zM63.27 45.26v-4.34h-4.1v4.34h-1.8V35.7h1.8v3.6h4.1v-3.6h1.8v9.55h-1.8zM67.25 45.26V35.7h1.76v9.55h-1.76zM75.47 45.26h-2.4l-2.81-9.55h1.87l2.14 7.53 2.08-7.53h1.84l-2.72 9.55zM79.4 45.26V35.7h6.78v1.6h-5.03v2.24h4.61v1.54h-4.61v2.56h5.37v1.6h-7.13zM94.43 44.52c-1.15.97-2.7.98-3.13.98-.56 0-2.39-.02-3.71-1.42-.17-.17-.34-.4-.47-.62l1.5-1.04c.42.62 1.21 1.43 2.97 1.43.08 0 .42 0 .7-.06.2-.05 1.14-.3 1.14-1.2 0-.09-.02-.35-.18-.56-.32-.44-1.19-.56-1.66-.67l-1.14-.25c-.49-.11-1.01-.22-1.45-.45a2.4 2.4 0 0 1-1.36-2.22c0-.21.03-.83.36-1.4.44-.73 1.48-1.57 3.41-1.57.85 0 2.53.13 3.85 1.93l-1.47 1.1a2.77 2.77 0 0 0-2.47-1.42c-.1 0-1.3-.02-1.7.73a.87.87 0 0 0 .02.86c.23.4.76.52 1.64.7l.98.22c.9.2 1.91.47 2.55 1.22.26.3.55.73.55 1.6 0 .88-.27 1.54-.93 2.1z"/><path class="st1" d="M8 57.94c-1.16.97-2.7.98-3.13.98-.57 0-2.4-.02-3.72-1.42-.16-.17-.34-.4-.46-.62l1.5-1.04c.42.62 1.2 1.43 2.96 1.43.08 0 .42 0 .7-.06C6.07 57.17 7 56.9 7 56c0-.09-.01-.34-.17-.56-.33-.43-1.2-.55-1.67-.66l-1.13-.26c-.49-.1-1.01-.22-1.45-.45a2.4 2.4 0 0 1-1.36-2.21c0-.22.02-.84.36-1.41.43-.73 1.47-1.57 3.4-1.57.86 0 2.54.14 3.86 1.93l-1.47 1.1a2.77 2.77 0 0 0-2.48-1.42c-.1 0-1.3-.01-1.69.73a.86.86 0 0 0 .02.87c.23.39.75.5 1.63.7l.99.21c.9.2 1.9.48 2.54 1.22.27.3.56.73.56 1.61 0 .87-.27 1.53-.94 2.1zM10.48 58.68v-9.55h6.79v1.6h-5.03v2.24h4.6v1.55h-4.6v2.55h5.36v1.61h-7.12zM26.38 57.56a4.31 4.31 0 0 1-3.29 1.36 4.02 4.02 0 0 1-3.27-1.47 5.14 5.14 0 0 1-1.27-3.53c0-.31.01-1.04.28-1.85a4.46 4.46 0 0 1 4.3-3.18c1.84 0 2.94 1 3.38 1.52.5.56 1.2 1.67 1.2 3.5 0 .6-.07 2.28-1.33 3.65zm-1.04-5.77a2.5 2.5 0 0 0-2.22-1.26c-.6 0-1.03.19-1.22.28-.67.37-1.51 1.26-1.51 3.04 0 .37.01 2.13 1.35 3a2.63 2.63 0 0 0 2.5.18c.7-.32 1.62-1.13 1.66-2.93a4.23 4.23 0 0 0-.56-2.31zM36.96 56.73c-.3.96-1.4 2.2-3.74 2.2-1.12 0-2.25-.28-3.03-1.14a2.77 2.77 0 0 1-.61-1.03c-.15-.49-.15-.93-.15-1.95v-5.68h1.8V55c0 .57 0 .77.1 1.06.17.56.68 1.13 1.96 1.13.22 0 1.54 0 1.93-1.08.1-.31.12-.57.12-1.2v-5.78h1.78v5.5c0 1.1.02 1.56-.16 2.1zM39.34 58.68v-9.55h1.8v7.93h3.78v1.62h-5.58zM57.39 58.68l.17-7.84-2.07 7.84h-1.6l-2.07-7.84.17 7.84h-1.74v-9.55h2.6l1.86 7.09 1.84-7.08h2.58v9.54h-1.74zM68.84 56.73c-.31.96-1.4 2.2-3.75 2.2-1.12 0-2.24-.28-3.03-1.14a2.78 2.78 0 0 1-.6-1.03c-.15-.49-.15-.93-.15-1.95v-5.68h1.8V55c0 .57 0 .77.09 1.06.18.56.69 1.13 1.96 1.13.23 0 1.54 0 1.93-1.08.11-.31.12-.57.12-1.2v-5.78H69v5.5c0 1.1.01 1.56-.16 2.1zM77.72 57.94c-1.15.97-2.7.98-3.13.98-.56 0-2.39-.02-3.71-1.42-.16-.17-.34-.4-.46-.62l1.5-1.04c.42.62 1.2 1.43 2.96 1.43.08 0 .42 0 .7-.06.2-.04 1.14-.3 1.14-1.2 0-.09-.02-.34-.18-.56-.32-.43-1.19-.55-1.66-.66l-1.14-.26c-.48-.1-1.01-.22-1.44-.45a2.4 2.4 0 0 1-1.37-2.21c0-.22.03-.84.37-1.41.43-.73 1.47-1.57 3.4-1.57.85 0 2.53.14 3.86 1.93l-1.48 1.1a2.77 2.77 0 0 0-2.47-1.42c-.1 0-1.3-.01-1.7.73a.86.86 0 0 0 .02.86c.23.4.76.52 1.64.7l.98.22c.91.2 1.91.48 2.55 1.22.27.3.55.73.55 1.6 0 .88-.27 1.54-.93 2.1zM80.2 58.68v-9.55H87v1.6h-5.04v2.24h4.61v1.55h-4.6v2.55h5.36v1.61H80.2zM96.24 56.73c-.31.96-1.4 2.2-3.75 2.2-1.12 0-2.24-.28-3.03-1.14a2.77 2.77 0 0 1-.6-1.03c-.15-.49-.15-.93-.15-1.95v-5.68h1.8V55c0 .57 0 .77.09 1.06.17.56.69 1.13 1.96 1.13.23 0 1.54 0 1.93-1.08.11-.31.13-.57.13-1.2v-5.78h1.78v5.5c0 1.1.01 1.56-.16 2.1zM105.67 58.68l.18-7.84-2.07 7.84h-1.6l-2.08-7.84.18 7.84h-1.75v-9.55h2.6l1.86 7.09 1.84-7.08h2.59v9.54h-1.75zM8.86 70.98a4.29 4.29 0 0 1-3.29 1.37 4.02 4.02 0 0 1-3.27-1.48 5.14 5.14 0 0 1-1.27-3.53c0-.3.01-1.04.28-1.85a4.45 4.45 0 0 1 4.3-3.17c1.84 0 2.94 1 3.38 1.5.5.58 1.2 1.69 1.2 3.51 0 .6-.07 2.29-1.33 3.65zm-1.04-5.77a2.5 2.5 0 0 0-2.22-1.26c-.6 0-1.03.19-1.22.28-.67.37-1.51 1.26-1.51 3.05 0 .36.01 2.12 1.35 3 .58.38 1.16.4 1.4.4.2 0 .63 0 1.1-.22.7-.33 1.63-1.14 1.67-2.94a4.21 4.21 0 0 0-.57-2.31zM13.67 64.15v2.38h3.99v1.53h-3.99v4.04H11.9v-9.54h6.31v1.6h-4.54zM29.04 72.1l-.55-1.86H24.9l-.55 1.86h-1.92l3.23-9.54h2.03l3.26 9.54h-1.91zm-2.34-7.82-1.32 4.39H28l-1.3-4.4zM37.46 72.1l-1.88-3.54h-1.6v3.54H32.2v-9.54h3.9c.44 0 1.73.04 2.58 1.16a3.37 3.37 0 0 1 .4 2.93c-.14.4-.6 1.22-1.7 1.56l2.12 3.9h-2.04zm-.6-7.72c-.32-.2-.68-.28-1.44-.28h-1.45v2.97h.64c1.04 0 1.69 0 2.12-.23.27-.15.72-.5.72-1.27 0-.24-.03-.8-.6-1.19zM44.55 64.17v7.93h-1.79v-7.93h-2.6v-1.61h7.02v1.6h-2.63z"/><path class="st0" d="m209.77 74.14-1.6 10.15-.34.2c.06.15.1.21.15.36L203.32 94l-.38.09.03.39-7.09 7.09h-.36v.36l-2.36 2.36-2.36 2.36h-.36v.36l-2.36 2.36-2.36 2.36h-.36v.36l-2.37 2.36-2.36 2.36h-.36v.36l-2.36 2.37-2.36 2.36h-.36l-2.18-2.18v-.36l2.36-2.37 2.36-2.36h.36v-.36l2.36-2.36 2.37-2.36h.36v-.36l2.36-2.36 2.36-2.36h.36v-.36l2.36-2.36 2.36-2.36h.36v-.36l6.75-6.75.33-.03-.08-.32 4.22-8.28.3-.13-.17-.28 1.46-9.18.25-.21-.25-.22-1.46-9.18.17-.28-.3-.13-4.22-8.28.08-.32-.33-.03-6.58-6.57-.02-.33-.32.08-8.28-4.22-.13-.3-.28.17-9.18-1.46-.22-.25-.21.25-9.18 1.46-.28-.18-.13.31-8.28 4.22-.32-.08-.03.33-6.95 6.95h-.36v.36l-2.36 2.36-2.36 2.36h-.36v.36l-2.36 2.36-2.36 2.36h-.36v.36l-2.36 2.36-2.36 2.37h-.36v.36l-2.36 2.36-2.37 2.36h-.36v.36l-2.36 2.36-2.36 2.36h-.36v.36l-2.36 2.36-2.36 2.36h-.36v.36L116.5 89l-2.36 2.36h-.36v.36l-2.36 2.37-2.36 2.36h-.36v.36l-2.36 2.36-2.36 2.36h-.36v.36l-2.37 2.36-2.36 2.36h-.36v.36l-2.36 2.36-2.36 2.36h-.36v.36l-2.36 2.36-2.36 2.36h-.36v.36L86 119.5l-2.36 2.36h-.36v.36l-2.36 2.36-2.36 2.36h-.36v.36l-2.36 2.36-2.37 2.36h-.36v.36l-2.36 2.36-2.36 2.36h-.36v.36l-5.75 5.75-.38-.02-.08.38-7 4.04c-.16-.04-.23-.07-.37-.12l-.09.17-.08.18-7.82 2.1-.32-.22-.13.14-.13.15h-8.13l-.25-.26-.26.26h-6.68l-.25-.26-.26.26h-6.67l-.26-.26-.25.26h-6.68l-.25-.26-.26.26h-4.72l-.25-.3-.35.18-4.31-1.79-.11-.37-.4.03-3.3-3.3a26 26 0 0 1 .04-.39l-.37-.11-1.8-4.32.2-.34-.31-.26v-4.72l.26-.26-.26-.25v-6.68l.26-.25-.26-.26v-6.68l.26-.25-.26-.26v-6.68l.26-.25h3.08l.25.25v6.68l-.25.26.25.25v6.68l-.25.26.25.25v6.68l-.25.25.25.26v4.1l-.2.26.28.15L5 142.01l-.1.3.33.04 2.43 2.43.03.32.31-.09 3.18 1.32.15.28.25-.2h4.11l.26.25.25-.25h6.68l.26.25.25-.25h6.68l.25.25.26-.25h6.67l.26.25.25-.25h7.73l.25.22.19-.28 7.04-1.89.3.15.1-.32 6.32-3.64.33.07.02-.34 5.46-5.46h.37v-.36l2.36-2.36 2.36-2.36h.36v-.36l2.36-2.37 2.36-2.36h.36v-.36l2.36-2.36 2.36-2.36h.36v-.36l2.36-2.36 2.36-2.36h.36v-.36l2.36-2.36 2.37-2.36h.36v-.36l2.36-2.36 2.36-2.36h.36v-.36l2.36-2.37 2.36-2.36h.36v-.36l2.36-2.36 2.36-2.36h.36v-.36l2.36-2.36 2.36-2.36h.36v-.36l2.36-2.36 2.36-2.36h.36v-.36l2.37-2.36 2.36-2.36h.36v-.36l2.36-2.37 2.36-2.36h.36v-.36l2.36-2.36 2.36-2.36h.36v-.36l2.36-2.36 2.36-2.36h.36v-.36l2.36-2.36 2.36-2.36h.36v-.36l2.36-2.36 2.37-2.36h.36v-.36l7.29-7.3.39.03.09-.38 9.15-4.66.36.15.2-.33 10.14-1.6.3.24.3-.25 10.14 1.61.2.33.36-.15 9.15 4.66.09.38.39-.03 7.26 7.26-.03.4.37.08 4.67 9.15-.15.36.33.2 1.6 10.15-.25.3.25.3z"/><path class="st1" d="M9.52 4.31h-2.8v1.44h2.8v7.61h1.73V0H9.52z"/><path class="st1" d="M5.12 3.36V1.09H3.39v2.27c0 2.52-1.34 4.93-3.26 5.87L0 9.3l1.08 1.37.08-.04a6.74 6.74 0 0 0 3.1-3.9c.62 1.7 1.7 3 3.05 3.68l.08.04 1.02-1.38L8.3 9C6.4 8.12 5.1 5.85 5.1 3.36zM23.86 2.53c0-1.5-1.74-2.37-4.78-2.37s-4.77.86-4.77 2.37c0 1.5 1.74 2.37 4.77 2.37s4.78-.86 4.78-2.37zm-7.78 0c0-.67 1.06-1.03 3-1.03s3 .36 3 1.03-1.06 1.04-3 1.04c-1.93 0-3-.37-3-1.04zM13.04 6.8h5.16v.84h-3.75v1.35h7.49v.72h-7.46v3.52h9.53v-1.37h-7.83v-.87h7.45V7.64h-3.7V6.8h5.18V5.39H13.04zM35.23.01h1.73v13.36h-1.73zM31.01 3.37V1.12H29.3v2.25c0 2.56-1.4 4.97-3.39 5.87l-.12.06 1.02 1.43.08-.04a6.77 6.77 0 0 0 3.29-3.98 6.57 6.57 0 0 0 3.2 3.7l.08.03 1-1.37-.12-.06C32.38 8.13 31 5.81 31 3.37zM47.2 6.83 47 5.39l-.11.02c-1.9.32-3.53.39-5.66.39V4.57h4.48V.64h-6.2v1.44h4.52v1.14h-4.5v4.02h1.22c2.55 0 4.31-.07 6.35-.4l.1-.01zM48.16.03h1.72v7.46h-1.72zM48.17 9.22H42.8V7.87h-1.72v5.31h8.8v-5.3h-1.7v1.34zm0 2.54H42.8v-1.14h5.38v1.14z"/><path class="st0" d="M9.42 15.29h1.73v13.36H9.42zM.85 25.4h6.37v-8.87H.85v8.88zm1.69-7.46h3v6.04h-3v-6.04zM13.04 22.02h5.16v.88h-3.75v1.35h7.49V25h-7.46v3.5h9.53v-1.37h-7.83v-.85h7.45V22.9h-3.7v-.88h5.19v-1.41H13.04zM14.3 20.12c2.16-.26 3.9-1.13 4.78-2.38.9 1.25 2.62 2.12 4.79 2.38h.08l.6-1.35-.15-.02c-2.53-.25-4.44-1.5-4.44-2.9v-.5H18.2v.5c0 1.4-1.9 2.65-4.43 2.9l-.16.02.6 1.36.09-.01zM36.32 15.3H34.6v13.33h1.72v-6.76h2.04v-1.45h-2.04zM29.55 16.26c-2.07 0-3.47 1.9-3.47 4.73 0 2.83 1.4 4.72 3.47 4.72s3.48-1.9 3.48-4.72c0-2.83-1.4-4.73-3.48-4.73zm0 7.9c-1.1 0-1.81-1.25-1.81-3.17s.7-3.16 1.81-3.16c1.1 0 1.82 1.24 1.82 3.16 0 1.93-.71 3.17-1.82 3.17zM49.22 15.29h-1.71V28.6h1.71v-6.67h1.99v-1.47h-1.99zM39.67 18.04h4.46c-.05.64-.16 1.26-.3 1.83l-4.85.3.24 1.52 4.05-.4c-.8 1.58-2.22 2.85-4.3 3.9l-.11.05.94 1.34.09-.04c5.28-2.66 5.95-6.65 5.95-9.82v-.12h-6.17v1.44zM61.04 15.29h1.73v13.36h-1.73zM55.68 16.26c-2.04 0-3.47 1.94-3.47 4.72 0 2.83 1.4 4.73 3.47 4.73 2.09 0 3.49-1.9 3.49-4.73 0-2.83-1.4-4.72-3.49-4.72zm0 7.9c-1.1 0-1.82-1.25-1.82-3.18 0-1.92.72-3.15 1.82-3.15 1.11 0 1.83 1.23 1.83 3.15 0 1.93-.72 3.18-1.83 3.18zM64.68 25.52h12.08v1.45H64.68zM75.4 16.2h-1.7v2.29H67.7v-2.3h-1.7v7.13h9.38V16.2zm-1.7 5.7H67.7v-2h5.99v2z"/></svg>